<?xml version="1.0" encoding="UTF-8"?>
<svg width="82px" height="100px" viewBox="0 0 82 100" version="1.1" xmlns="http://www.w3.org/2000/svg" xmlns:xlink="http://www.w3.org/1999/xlink">
    <title>Fill-1</title>
    <g id="Page-1" stroke="none" stroke-width="1" fill="none" fill-rule="evenodd">
        <g id="BoliHome" transform="translate(-583.000000, -214.000000)" fill="#22D3EE" fill-rule="nonzero">
            <g id="boli_logo" transform="translate(583.000000, 214.000000)">
                <path d="M74.5636433,51.6874267 L65.077127,66.9486257 C64.4889367,67.8944345 63.4611594,68.4688443 62.3563573,68.4688443 L60.7294973,68.4688443 C59.6239171,68.4688443 58.5961397,67.8944345 58.0079492,66.9486257 L48.5214331,51.6874267 C47.9036775,50.6888981 47.9036775,49.4196888 48.5214331,48.4211602 L58.0079492,33.1607481 C58.5961397,32.2141526 59.6239171,31.6397429 60.7294973,31.6397429 L62.3493551,31.6397429 C63.4588255,31.6397429 64.4904928,32.2165131 65.0810172,33.1662562 L74.5636433,48.4211602 C75.186067,49.4196888 75.186067,50.6888981 74.5636433,51.6874267 L74.5636433,51.6874267 Z M53.7715775,74.3750345 L44.2889516,89.6299386 C43.6984272,90.5796817 42.6667597,91.1564519 41.5580674,91.1564519 L39.9436558,91.1564519 C38.8349633,91.1564519 37.803296,90.5796817 37.2127716,89.6299386 L27.7301455,74.3750345 C27.111612,73.376506 27.111612,72.1065098 27.7301455,71.1087681 L37.5862258,55.252701 C37.7978498,54.9127762 38.1090617,54.6649145 38.4622872,54.508329 C38.4832941,54.508329 38.5035228,54.5161976 38.5253075,54.5161976 L42.9764155,54.5161976 C42.9982004,54.5161976 43.0184292,54.508329 43.039436,54.508329 C43.3934394,54.6649145 43.7038734,54.9127762 43.9154974,55.252701 L53.7715775,71.1087681 C54.3947793,72.1065098 54.3947793,73.376506 53.7715775,74.3750345 L53.7715775,74.3750345 Z M23.4937738,66.9478388 C22.9055834,67.8944345 21.8778061,68.4688443 20.7722259,68.4688443 L19.1515901,68.4688443 C18.0428977,68.4688443 17.0112304,67.892074 16.4207058,66.942331 L6.93807985,51.6874267 C6.32032427,50.6888981 6.32032427,49.4196888 6.93807985,48.4211602 L16.4238179,33.1607481 C17.0127864,32.2141526 18.0405637,31.6397429 19.1453658,31.6397429 L20.7660017,31.6397429 C21.874694,31.6397429 22.9063614,32.2157262 23.4968859,33.1654693 L32.979512,48.4211602 C33.6027137,49.4196888 33.6027137,50.6888981 32.979512,51.6874267 L23.4937738,66.9478388 Z M27.7301455,25.6249655 L37.2127716,10.3700615 C37.803296,9.42031836 38.8349633,8.84354812 39.9436558,8.84354812 L41.5580674,8.84354812 C42.6667597,8.84354812 43.6984272,9.42031836 44.2889516,10.3700615 L53.7715775,25.6249655 C54.3947793,26.623494 54.3947793,27.8927033 53.7715775,28.8912319 L43.9154974,44.747299 C43.7038734,45.0872238 43.3934394,45.3350855 43.039436,45.491671 C43.0184292,45.4908843 42.9982004,45.4838024 42.9764155,45.4838024 L38.5253075,45.4838024 C38.5035228,45.4838024 38.4832941,45.4908843 38.4622872,45.491671 C38.1090617,45.3350855 37.7978498,45.0872238 37.5862258,44.747299 L27.7301455,28.8912319 C27.111612,27.8927033 27.111612,26.623494 27.7301455,25.6249655 L27.7301455,25.6249655 Z M80.8166681,47.6366583 L66.226277,24.1724174 C65.6948826,23.3147371 64.7651373,22.7961947 63.7684813,22.7961947 L61.4234997,22.7969816 C59.7624063,22.7969816 58.2172393,21.9337934 57.3333976,20.5111459 L45.4349893,1.37622259 C44.9028171,0.518542417 43.9730715,0 42.9764155,0 L38.5253075,0 C37.5286515,0 36.5989062,0.518542417 36.0675118,1.37622259 L24.1978907,20.4710159 C23.2977103,21.9180561 21.7260903,22.7969816 20.0362098,22.7961947 L17.7332419,22.7961947 C16.7365859,22.7961947 15.8068404,23.3147371 15.2754461,24.1724174 L0.689723328,47.6358714 C-0.229907776,49.1135993 -0.229907776,50.9942007 0.689723328,52.4727155 L15.2754461,75.9361698 C15.8068404,76.79385 16.7365859,77.3123924 17.7332419,77.3123924 L19.8261418,77.3100317 C21.6871889,77.3084581 23.4183049,78.2755121 24.4087368,79.8689088 L36.0675118,98.6237774 C36.5989062,99.4814576 37.5286515,100 38.5253075,100 L42.9764155,100 C43.9730715,100 44.9028171,99.4814576 45.4349893,98.6237774 L57.1015446,79.8602531 C58.0873083,78.2747252 59.8098662,77.3123924 61.6615768,77.3123924 L62.2264263,77.3123924 L63.7684813,77.3123924 C64.7651373,77.3123924 65.6948826,76.79385 66.226277,75.9361698 L80.8166681,52.4727155 C81.7316309,50.9949876 81.7316309,49.1143862 80.8166681,47.6366583 L80.8166681,47.6366583 Z" id="Fill-1"></path>
            </g>
        </g>
    </g>
</svg>